<svg width="32" height="32" viewBox="0 0 32 32" fill="none" xmlns="http://www.w3.org/2000/svg">
  <defs>
    <linearGradient id="bgGradient" x1="0%" y1="0%" x2="100%" y2="100%">
      <stop offset="0%" style="stop-color:#10B981;stop-opacity:1" />
      <stop offset="100%" style="stop-color:#2563EB;stop-opacity:1" />
    </linearGradient>
  </defs>
  
  <!-- Background rounded rectangle -->
  <rect width="32" height="32" rx="6" fill="url(#bgGradient)"/>
  
  <!-- Book icon -->
  <path d="M8 6C8 5.44772 8.44772 5 9 5H23C23.5523 5 24 5.44772 24 6V26C24 26.5523 23.5523 27 23 27H9C8.44772 27 8 26.5523 8 26V6Z" fill="white" fill-opacity="0.9"/>
  <path d="M10 8H22V10H10V8Z" fill="url(#bgGradient)"/>
  <path d="M10 12H22V14H10V12Z" fill="url(#bgGradient)"/>
  <path d="M10 16H18V18H10V16Z" fill="url(#bgGradient)"/>
  
  <!-- Orange dot -->
  <circle cx="26" cy="6" r="4" fill="#F97316"/>
</svg>